<?xml version="1.0" encoding="UTF-8"?>
<svg width="40px" height="40px" viewBox="0 0 40 40" version="1.1" xmlns="http://www.w3.org/2000/svg" xmlns:xlink="http://www.w3.org/1999/xlink">
    <title>Base Station-Icon</title>
    <g id="Exports" stroke="none" stroke-width="1" fill="none" fill-rule="evenodd">
        <g id="Shield-Updates-V1" transform="translate(-961.000000, -2972.000000)" fill="#0F2648">
            <g id="Quick-points" transform="translate(175.000000, 2972.000000)">
                <g id="Group-4" transform="translate(785.000000, 0.000000)">
                    <path d="M28.0399052,34.480733 C28.0399052,36.2338055 26.6136879,37.6601166 24.8606154,37.6601166 L15.1503173,37.6601166 C13.3972448,37.6601166 11.9710275,36.2338055 11.9710275,34.480733 L11.9710275,34.0431447 C11.9710275,33.9425378 11.9773095,33.8410871 11.9895924,33.7413241 L12.0274723,33.4356592 L27.9834603,33.4356592 L28.0213403,33.7413241 C28.0337169,33.8410871 28.0399052,33.9425378 28.0399052,34.0431447 L28.0399052,34.480733 Z M13.6264935,20.5233808 L13.6318379,20.4809065 L14.2667957,3.14361327 L25.7441369,3.14361327 L26.3775946,20.4379634 L26.3790948,20.4809065 L27.7385534,31.4581199 L12.2723793,31.4581199 L13.6264935,20.5233808 Z M29.9838776,33.4982924 L28.352321,20.3229171 L27.6506982,1.16598025 L12.3602345,1.16598025 L11.6586117,20.3229171 L10.0270551,33.4982924 C10.0046459,33.6782221 9.99339445,33.8615272 9.99339445,34.0431447 L9.99339445,34.480733 C9.99339445,37.324354 12.30679,39.6377496 15.1503173,39.6377496 L24.8606154,39.6377496 C27.7041426,39.6377496 30.0175382,37.324354 30.0175382,34.480733 L30.0175382,34.0431447 C30.0175382,33.8615272 30.0062868,33.6782221 29.9838776,33.4982924 L29.9838776,33.4982924 Z" id="Fill-3"></path>
                </g>
            </g>
        </g>
    </g>
</svg>