<?xml version="1.0" encoding="UTF-8"?>
<svg width="40px" height="40px" viewBox="0 0 40 40" version="1.1" xmlns="http://www.w3.org/2000/svg" xmlns:xlink="http://www.w3.org/1999/xlink">
    <title>Cloud-Icon</title>
    <defs>
        <polygon id="path-1" points="0 40 40 40 40 0 0 0"></polygon>
    </defs>
    <g id="Exports" stroke="none" stroke-width="1" fill="none" fill-rule="evenodd">
        <g id="Shield-Updates-V1" transform="translate(-567.000000, -2972.000000)">
            <g id="Quick-points" transform="translate(175.000000, 2972.000000)"></g>
            <g id="Group-11" transform="translate(567.000000, 2972.000000)">
                <path d="M28.6794966,31.3373896 L28.6794966,29.4529218 C32.9272328,29.4529218 36.383103,26.1331243 36.383103,22.0525528 C36.383103,18.3139946 33.4750079,15.1557331 29.6186034,14.7060589 L28.9456558,14.6276139 L28.8057413,13.9646729 C27.9766184,10.0331292 24.3407177,7.17962395 20.1605264,7.17962395 C15.996864,7.17962395 12.3635543,10.019102 11.5212976,13.9312578 L11.3728954,14.6207343 L10.669481,14.6726439 C8.73435455,14.8151494 6.93914255,15.6499904 5.61460078,17.0231359 C4.2912205,18.3950306 3.5625215,20.1812188 3.5625215,22.0525528 C3.5625215,25.8460583 6.51904168,29.0094125 10.439596,29.4109296 C10.714779,29.4388053 10.9932678,29.4529218 11.2660386,29.4529218 L21.6520543,29.4529218 L21.6520543,31.3373896 L11.2660386,31.3373896 C10.9302795,31.3373896 10.5880876,31.3200566 10.2489334,31.2857481 C7.91211118,31.0463925 5.75254969,29.9837213 4.1669414,28.2931325 C2.56194522,26.5819049 1.67805371,24.3656986 1.67805371,22.0525528 C1.67805371,19.6906246 2.59437751,17.4398417 4.25825214,15.7149443 C5.74736767,14.1710602 7.71153133,13.1748619 9.84714833,12.8674252 C10.4360222,10.8308026 11.6709508,8.99458122 13.3744053,7.64216376 C15.2806733,6.12874635 17.6907586,5.29515615 20.1605264,5.29515615 C24.9973152,5.29515615 29.2373677,8.46967849 30.4916842,12.9328259 C34.9685907,13.7605193 38.2674815,17.5734127 38.2674815,22.0525528 C38.2674815,27.1722083 33.9664062,31.3373896 28.6794966,31.3373896" id="Fill-1" fill="#0C2444"></path>
                <path d="M12.1215719,28.6708163 L11.2799407,28.6708163 L11.2897686,28.6218163 C11.5631648,28.6538163 11.8401347,28.6708163 12.1215719,28.6708163" id="Fill-3" fill="#FFFFFF"></path>
                <path d="M12.1215898,28.707551 L11.2242072,28.707551 L11.2548526,28.5704956 L11.2943431,28.5746948 C11.570509,28.6035533 11.8488191,28.6182059 12.1215898,28.6182059 L12.1215898,28.707551 Z" id="Fill-5" fill="#000000"></path>
                <mask id="mask-2" fill="white">
                    <use xlink:href="#path-1"></use>
                </mask>
                <g id="Clip-8"></g>
                <polygon id="Fill-7" fill="#0C2444" mask="url(#mask-2)" points="24.4541235 32.9702347 26.1866152 32.9702347 26.1866152 20.8425247 24.4541235 20.8425247"></polygon>
                <polygon id="Fill-9" fill="#0C2444" mask="url(#mask-2)" points="20.355683 24.5845674 25.3206821 19.6170667 30.2878254 24.5867117 29.0624567 25.8114549 25.3206821 22.0678934 21.5810517 25.8093107"></polygon>
            </g>
        </g>
    </g>
</svg>