<?xml version="1.0" encoding="UTF-8"?>
<svg width="40px" height="40px" viewBox="0 0 40 40" version="1.1" xmlns="http://www.w3.org/2000/svg" xmlns:xlink="http://www.w3.org/1999/xlink">
    <title>Night-Icon</title>
    <defs>
        <polygon id="path-1" points="0 40 40 40 40 0 0 0"></polygon>
    </defs>
    <g id="Exports" stroke="none" stroke-width="1" fill="none" fill-rule="evenodd">
        <g id="Shield-Updates-V1" transform="translate(-569.000000, -871.000000)">
            <g id="Quick-points" transform="translate(176.000000, 869.568811)">
                <g id="Group-7-Copy-6" transform="translate(394.000000, 0.000000)">
                    <path d="M18.2928097,33.0176194 C14.4766695,33.0176194 10.8795876,31.5699848 8.15334975,28.9886182 C10.8113283,29.0261608 13.3527273,28.6372628 15.7399144,27.827852 C18.6843123,26.8293811 21.2545418,25.240378 23.3792002,23.1049418 C27.2008191,19.2640128 29.1955155,14.0281704 29.1057008,8.18661715 C31.6409025,10.9040531 33.0622214,14.4718554 33.0622214,18.2482076 C33.0622214,26.3920729 26.436675,33.0176194 18.2928097,33.0176194 M28.6559084,5.39508399 L27.0299914,4.08262062 L27.242583,6.16129387 C27.8760466,12.3546516 26.0655603,17.935742 22.1446063,21.8765451 C20.2111635,23.8196878 17.8681654,25.2671428 15.1806377,26.1784934 C12.395661,27.122806 9.36944187,27.4448818 6.1834422,27.1352004 C6.12811629,27.1299912 6.0832089,27.1305301 6.07018576,27.1309791 L4.25134666,27.1241532 L5.38660547,28.5452925 C8.54116997,32.4943585 13.2453089,34.7593076 18.2928097,34.7593076 C27.3969746,34.7593076 34.8038198,27.3523726 34.8038198,18.2482076 C34.8038198,13.2338485 32.5630309,8.54901978 28.6559084,5.39508399" id="Fill-1" fill="#0F2648"></path>
                    <polygon id="Fill-3" fill="#0F2648" points="10.6855697 17.2280195 13.9043518 15.3696619 13.9043518 19.0862873 15.6459501 19.0862873 15.6459501 15.3697517 18.8645526 17.2280195 19.7353967 15.7197599 16.5167044 13.8614023 19.7353967 12.0031345 18.8645526 10.4947851 15.6459501 12.3531427 15.6459501 8.63651734 13.9043518 8.63651734 13.9043518 12.3531427 10.6855697 10.4947851 9.8148154 12.0031345 13.0335076 13.8614023 9.8148154 15.7197599"></polygon>
                    <mask id="mask-2" fill="white">
                        <use xlink:href="#path-1"></use>
                    </mask>
                    <g id="Clip-6"></g>
                </g>
            </g>
        </g>
    </g>
</svg>